<svg xmlns="http://www.w3.org/2000/svg" xmlns:xlink="http://www.w3.org/1999/xlink" id="processonSvg1000" viewBox="201.0 181.5 891.0 423.0" width="891.0" height="423.0"><defs id="ProcessOnDefs1001"><marker id="ProcessOnMarker1023" markerUnits="userSpaceOnUse" orient="auto" markerWidth="16.23606797749979" markerHeight="10.550836550532098" viewBox="-1.0 -1.3763819204711736 16.23606797749979 10.550836550532098" refX="-1.0" refY="3.8990363547948754"><path id="ProcessOnPath1024" d="M12.0 3.8990363547948754L0.0 7.798072709589751V0.0Z" stroke="#323232" stroke-width="2.0" fill="#323232" transform="matrix(1.0,0.0,0.0,1.0,0.0,0.0)"/></marker><marker id="ProcessOnMarker1031" markerUnits="userSpaceOnUse" orient="auto" markerWidth="16.23606797749979" markerHeight="10.550836550532098" viewBox="-1.0 -1.3763819204711736 16.23606797749979 10.550836550532098" refX="-1.0" refY="3.8990363547948754"><path id="ProcessOnPath1032" d="M12.0 3.8990363547948754L0.0 7.798072709589751V0.0Z" stroke="#323232" stroke-width="2.0" fill="#323232" transform="matrix(1.0,0.0,0.0,1.0,0.0,0.0)"/></marker><marker id="ProcessOnMarker1057" markerUnits="userSpaceOnUse" orient="auto" markerWidth="16.23606797749979" markerHeight="10.550836550532098" viewBox="-1.0 -1.3763819204711736 16.23606797749979 10.550836550532098" refX="-1.0" refY="3.8990363547948754"><path id="ProcessOnPath1058" d="M12.0 3.8990363547948754L0.0 7.798072709589751V0.0Z" stroke="#323232" stroke-width="2.0" fill="#323232" transform="matrix(1.0,0.0,0.0,1.0,0.0,0.0)"/></marker><marker id="ProcessOnMarker1069" markerUnits="userSpaceOnUse" orient="auto" markerWidth="16.23606797749979" markerHeight="10.550836550532098" viewBox="-1.0 -1.3763819204711736 16.23606797749979 10.550836550532098" refX="-1.0" refY="3.8990363547948754"><path id="ProcessOnPath1070" d="M12.0 3.8990363547948754L0.0 7.798072709589751V0.0Z" stroke="#323232" stroke-width="2.0" fill="#323232" transform="matrix(1.0,0.0,0.0,1.0,0.0,0.0)"/></marker><marker id="ProcessOnMarker1073" markerUnits="userSpaceOnUse" orient="auto" markerWidth="16.23606797749979" markerHeight="10.550836550532098" viewBox="-1.0 -1.3763819204711736 16.23606797749979 10.550836550532098" refX="-1.0" refY="3.8990363547948754"><path id="ProcessOnPath1074" d="M12.0 3.8990363547948754L0.0 7.798072709589751V0.0Z" stroke="#323232" stroke-width="2.0" fill="#323232" transform="matrix(1.0,0.0,0.0,1.0,0.0,0.0)"/></marker><marker id="ProcessOnMarker1085" markerUnits="userSpaceOnUse" orient="auto" markerWidth="16.23606797749979" markerHeight="10.550836550532098" viewBox="-1.0 -1.3763819204711736 16.23606797749979 10.550836550532098" refX="-1.0" refY="3.8990363547948754"><path id="ProcessOnPath1086" d="M12.0 3.8990363547948754L0.0 7.798072709589751V0.0Z" stroke="#323232" stroke-width="2.0" fill="#323232" transform="matrix(1.0,0.0,0.0,1.0,0.0,0.0)"/></marker><marker id="ProcessOnMarker1107" markerUnits="userSpaceOnUse" orient="auto" markerWidth="16.23606797749979" markerHeight="10.550836550532098" viewBox="-1.0 -1.3763819204711736 16.23606797749979 10.550836550532098" refX="-1.0" refY="3.8990363547948754"><path id="ProcessOnPath1108" d="M12.0 3.8990363547948754L0.0 7.798072709589751V0.0Z" stroke="#323232" stroke-width="2.0" fill="#323232" transform="matrix(1.0,0.0,0.0,1.0,0.0,0.0)"/></marker></defs><g id="ProcessOnG1002"><path id="ProcessOnPath1003" d="M201.0 181.5H1092.0V604.5H201.0V181.5Z" fill="none"/><g id="ProcessOnG1004"><g id="ProcessOnG1005" transform="matrix(1.0,0.0,0.0,1.0,221.0,239.5)" opacity="1.0"><path id="ProcessOnPath1006" d="M0.0 0.0L88.0 0.0L88.0 27.0L0.0 27.0Z" stroke="#323232" stroke-width="2.0" stroke-dasharray="none" opacity="1.0" fill="#ffffff"/><g id="ProcessOnG1007" transform="matrix(1.0,0.0,0.0,1.0,10.0,5.375)"><text id="ProcessOnText1008" fill="#000000" font-size="13" x="33.0" y="13.325" font-family="微软雅黑" font-weight="normal" font-style="normal" text-decoration="none" family="微软雅黑" text-anchor="middle" size="13">ch*</text></g></g><g id="ProcessOnG1009" transform="matrix(1.0,0.0,0.0,1.0,358.5,287.0)" opacity="1.0"><path id="ProcessOnPath1010" d="M0.0 0.0L88.0 0.0L88.0 27.0L0.0 27.0Z" stroke="#323232" stroke-width="2.0" stroke-dasharray="none" opacity="1.0" fill="#ffffcc"/><g id="ProcessOnG1011" transform="matrix(1.0,0.0,0.0,1.0,10.0,5.375)"><text id="ProcessOnText1012" fill="#000000" font-size="13" x="33.0" y="13.325" font-family="微软雅黑" font-weight="normal" font-style="normal" text-decoration="none" family="微软雅黑" text-anchor="middle" size="13">*.md</text></g></g><g id="ProcessOnG1013" transform="matrix(1.0,0.0,0.0,1.0,358.5,239.5)" opacity="1.0"><path id="ProcessOnPath1014" d="M0.0 0.0L88.0 0.0L88.0 27.0L0.0 27.0Z" stroke="#323232" stroke-width="2.0" stroke-dasharray="none" opacity="1.0" fill="#ffffcc"/><g id="ProcessOnG1015" transform="matrix(1.0,0.0,0.0,1.0,10.0,5.375)"><text id="ProcessOnText1016" fill="#000000" font-size="13" x="33.0" y="13.325" font-family="微软雅黑" font-weight="normal" font-style="normal" text-decoration="none" family="微软雅黑" text-anchor="middle" size="13">title.tex</text></g></g><g id="ProcessOnG1017" transform="matrix(1.0,0.0,0.0,1.0,506.5,287.0)" opacity="1.0"><path id="ProcessOnPath1018" d="M0.0 0.0L88.0 0.0L88.0 27.0L0.0 27.0Z" stroke="#323232" stroke-width="2.0" stroke-dasharray="none" opacity="1.0" fill="#ccffcc"/><g id="ProcessOnG1019" transform="matrix(1.0,0.0,0.0,1.0,10.0,5.375)"><text id="ProcessOnText1020" fill="#000000" font-size="13" x="33.0" y="13.325" font-family="微软雅黑" font-weight="normal" font-style="normal" text-decoration="none" family="微软雅黑" text-anchor="middle" size="13">main.md</text></g></g><g id="ProcessOnG1021"><path id="ProcessOnPath1022" d="M446.5 300.5L476.5 300.5L476.5 300.5L491.2639320225002 300.5" stroke="#323232" stroke-width="2.0" stroke-dasharray="none" fill="none" marker-end="url(#ProcessOnMarker1023)"/></g><g id="ProcessOnG1025" transform="matrix(1.0,0.0,0.0,1.0,656.5,287.0)" opacity="1.0"><path id="ProcessOnPath1026" d="M0.0 0.0L93.5 0.0L93.5 27.0L0.0 27.0Z" stroke="#000000" stroke-width="2.0" stroke-dasharray="none" opacity="1.0" fill="#ffcccc"/><g id="ProcessOnG1027" transform="matrix(1.0,0.0,0.0,1.0,10.0,5.375)"><text id="ProcessOnText1028" fill="#000000" font-size="13" x="35.75" y="13.325" font-family="微软雅黑" font-weight="normal" font-style="normal" text-decoration="none" family="微软雅黑" text-anchor="middle" size="13">content.tex</text></g></g><g id="ProcessOnG1029"><path id="ProcessOnPath1030" d="M594.5 300.5L625.5 300.5L625.5 300.5L641.2639320225002 300.5" stroke="#323232" stroke-width="2.0" stroke-dasharray="none" fill="none" marker-end="url(#ProcessOnMarker1031)"/></g><g id="ProcessOnG1033" transform="matrix(1.0,0.0,0.0,1.0,656.5,201.5)" opacity="1.0"><path id="ProcessOnPath1034" d="M0.0 0.0L93.5 0.0L93.5 27.0L0.0 27.0Z" stroke="#323232" stroke-width="2.0" stroke-dasharray="none" opacity="1.0" fill="#ffffcc"/><g id="ProcessOnG1035" transform="matrix(1.0,0.0,0.0,1.0,10.0,5.375)"><text id="ProcessOnText1036" fill="#000000" font-size="13" x="35.75" y="13.325" font-family="微软雅黑" font-weight="normal" font-style="normal" text-decoration="none" family="微软雅黑" text-anchor="middle" size="13">format.cls</text></g></g><g id="ProcessOnG1037" transform="matrix(1.0,0.0,0.0,1.0,810.5,287.0)" opacity="1.0"><path id="ProcessOnPath1038" d="M0.0 0.0L93.5 0.0L93.5 27.0L0.0 27.0Z" stroke="#323232" stroke-width="2.0" stroke-dasharray="none" opacity="1.0" fill="#ffffcc"/><g id="ProcessOnG1039" transform="matrix(1.0,0.0,0.0,1.0,10.0,5.375)"><text id="ProcessOnText1040" fill="#000000" font-size="13" x="35.75" y="13.325" font-family="微软雅黑" font-weight="normal" font-style="normal" text-decoration="none" family="微软雅黑" text-anchor="middle" size="13">main.tex</text></g></g><g id="ProcessOnG1041"><path id="ProcessOnPath1042" d="M309.0 253.0L333.75 253.0L333.75 253.0L358.5 253.0" stroke="#323232" stroke-width="2.0" stroke-dasharray="none" fill="none"/></g><g id="ProcessOnG1043"><path id="ProcessOnPath1044" d="M309.0 253.0L333.75 253.0L333.75 300.5L358.5 300.5" stroke="#323232" stroke-width="2.0" stroke-dasharray="none" fill="none"/></g><g id="ProcessOnG1045" transform="matrix(1.0,0.0,0.0,1.0,972.75,287.0)" opacity="1.0"><path id="ProcessOnPath1046" d="M0.0 0.0L93.5 0.0L93.5 27.0L0.0 27.0Z" stroke="#323232" stroke-width="2.0" stroke-dasharray="none" opacity="1.0" fill="#ccffcc"/><g id="ProcessOnG1047" transform="matrix(1.0,0.0,0.0,1.0,10.0,5.375)"><text id="ProcessOnText1048" fill="#000000" font-size="13" x="35.75" y="13.325" font-family="微软雅黑" font-weight="normal" font-style="normal" text-decoration="none" family="微软雅黑" text-anchor="middle" size="13">main.pdf</text></g></g><g id="ProcessOnG1049"><path id="ProcessOnPath1050" d="M750.0 215.0L780.25 215.0L780.25 300.5L810.5 300.5" stroke="#323232" stroke-width="2.0" stroke-dasharray="none" fill="none"/></g><g id="ProcessOnG1051"><path id="ProcessOnPath1052" d="M750.0 300.5L780.25 300.5L780.25 300.5L810.5 300.5" stroke="#323232" stroke-width="2.0" stroke-dasharray="none" fill="none"/></g><g id="ProcessOnG1053"><path id="ProcessOnPath1054" d="M446.5 253.0L779.5 253.0L779.5 300.5L810.5 300.5" stroke="#323232" stroke-width="2.0" stroke-dasharray="none" fill="none"/></g><g id="ProcessOnG1055"><path id="ProcessOnPath1056" d="M904.0 300.5L938.375 300.5L938.375 300.5L957.5139320225002 300.5" stroke="#323232" stroke-width="2.0" stroke-dasharray="none" fill="none" marker-end="url(#ProcessOnMarker1057)"/></g><g id="ProcessOnG1059" transform="matrix(1.0,0.0,0.0,1.0,975.5,369.5)" opacity="1.0"><path id="ProcessOnPath1060" d="M0.0 0.0L88.0 0.0L88.0 27.0L0.0 27.0Z" stroke="#323232" stroke-width="2.0" stroke-dasharray="none" opacity="1.0" fill="#ccffcc"/><g id="ProcessOnG1061" transform="matrix(1.0,0.0,0.0,1.0,10.0,5.375)"><text id="ProcessOnText1062" fill="#000000" font-size="13" x="33.0" y="13.325" font-family="微软雅黑" font-weight="normal" font-style="normal" text-decoration="none" family="微软雅黑" text-anchor="middle" size="13">main.html</text></g></g><g id="ProcessOnG1063" transform="matrix(1.0,0.0,0.0,1.0,975.5,432.5)" opacity="1.0"><path id="ProcessOnPath1064" d="M0.0 0.0L88.0 0.0L88.0 27.0L0.0 27.0Z" stroke="#323232" stroke-width="2.0" stroke-dasharray="none" opacity="1.0" fill="#ccffcc"/><g id="ProcessOnG1065" transform="matrix(1.0,0.0,0.0,1.0,10.0,5.375)"><text id="ProcessOnText1066" fill="#000000" font-size="13" x="33.0" y="13.325" font-family="微软雅黑" font-weight="normal" font-style="normal" text-decoration="none" family="微软雅黑" text-anchor="middle" size="13">main.docx</text></g></g><g id="ProcessOnG1067"><path id="ProcessOnPath1068" d="M594.5 300.5L619.0 300.5L619.0 446.0L960.2639320225002 446.0" stroke="#323232" stroke-width="2.0" stroke-dasharray="none" fill="none" marker-end="url(#ProcessOnMarker1069)"/></g><g id="ProcessOnG1071"><path id="ProcessOnPath1072" d="M594.5 300.5L619.0 300.5L619.0 383.0L960.2639320225002 383.0" stroke="#323232" stroke-width="2.0" stroke-dasharray="none" fill="none" marker-end="url(#ProcessOnMarker1073)"/></g><g id="ProcessOnG1075" transform="matrix(1.0,0.0,0.0,1.0,221.0,496.5)" opacity="1.0"><path id="ProcessOnPath1076" d="M0.0 0.0L88.0 0.0L88.0 27.0L0.0 27.0Z" stroke="#323232" stroke-width="2.0" stroke-dasharray="none" opacity="1.0" fill="#ffffff"/><g id="ProcessOnG1077" transform="matrix(1.0,0.0,0.0,1.0,10.0,5.375)"><text id="ProcessOnText1078" fill="#000000" font-size="13" x="33.0" y="13.325" font-family="微软雅黑" font-weight="normal" font-style="normal" text-decoration="none" family="微软雅黑" text-anchor="middle" size="13">ch*</text></g></g><g id="ProcessOnG1079" transform="matrix(1.0,0.0,0.0,1.0,656.5,496.5)" opacity="1.0"><path id="ProcessOnPath1080" d="M0.0 0.0L93.5 0.0L93.5 27.0L0.0 27.0Z" stroke="#323232" stroke-width="2.0" stroke-dasharray="none" opacity="1.0" fill="#ffcccc"/><g id="ProcessOnG1081" transform="matrix(1.0,0.0,0.0,1.0,10.0,5.375)"><text id="ProcessOnText1082" fill="#000000" font-size="13" x="35.75" y="13.325" font-family="微软雅黑" font-weight="normal" font-style="normal" text-decoration="none" family="微软雅黑" text-anchor="middle" size="13">content.tex</text></g></g><g id="ProcessOnG1083"><path id="ProcessOnPath1084" d="M309.0 510.0L482.75 510.0L482.75 510.0L641.2639320225002 510.0" stroke="#323232" stroke-width="2.0" stroke-dasharray="10.0 4.0 2.0 4.0" fill="none" marker-end="url(#ProcessOnMarker1085)"/></g><g id="ProcessOnG1087" transform="matrix(1.0,0.0,0.0,1.0,810.5,496.5)" opacity="1.0"><path id="ProcessOnPath1088" d="M0.0 0.0L93.5 0.0L93.5 27.0L0.0 27.0Z" stroke="#323232" stroke-width="2.0" stroke-dasharray="none" opacity="1.0" fill="#ffffcc"/><g id="ProcessOnG1089" transform="matrix(1.0,0.0,0.0,1.0,10.0,5.375)"><text id="ProcessOnText1090" fill="#000000" font-size="13" x="35.75" y="13.325" font-family="微软雅黑" font-weight="normal" font-style="normal" text-decoration="none" family="微软雅黑" text-anchor="middle" size="13">all_main.tex</text></g></g><g id="ProcessOnG1091" transform="matrix(1.0,0.0,0.0,1.0,656.5,557.5)" opacity="1.0"><path id="ProcessOnPath1092" d="M0.0 0.0L93.5 0.0L93.5 27.0L0.0 27.0Z" stroke="#323232" stroke-width="2.0" stroke-dasharray="none" opacity="1.0" fill="#ffffcc"/><g id="ProcessOnG1093" transform="matrix(1.0,0.0,0.0,1.0,10.0,5.375)"><text id="ProcessOnText1094" fill="#000000" font-size="13" x="35.75" y="13.325" font-family="微软雅黑" font-weight="normal" font-style="normal" text-decoration="none" family="微软雅黑" text-anchor="middle" size="13">all_title.tex</text></g></g><g id="ProcessOnG1095"><path id="ProcessOnPath1096" d="M750.0 300.5L780.25 300.5L780.25 510.0L810.5 510.0" stroke="#323232" stroke-width="2.0" stroke-dasharray="none" fill="none"/></g><g id="ProcessOnG1097"><path id="ProcessOnPath1098" d="M750.0 510.0L780.25 510.0L780.25 510.0L810.5 510.0" stroke="#323232" stroke-width="2.0" stroke-dasharray="none" fill="none"/></g><g id="ProcessOnG1099"><path id="ProcessOnPath1100" d="M750.0 571.0L780.25 571.0L780.25 510.0L810.5 510.0" stroke="#323232" stroke-width="2.0" stroke-dasharray="none" fill="none"/></g><g id="ProcessOnG1101" transform="matrix(1.0,0.0,0.0,1.0,972.75,496.5)" opacity="1.0"><path id="ProcessOnPath1102" d="M0.0 0.0L99.25 0.0L99.25 27.0L0.0 27.0Z" stroke="#323232" stroke-width="2.0" stroke-dasharray="none" opacity="1.0" fill="#ccffcc"/><g id="ProcessOnG1103" transform="matrix(1.0,0.0,0.0,1.0,10.0,5.375)"><text id="ProcessOnText1104" fill="#000000" font-size="13" x="38.625" y="13.325" font-family="微软雅黑" font-weight="normal" font-style="normal" text-decoration="none" family="微软雅黑" text-anchor="middle" size="13">all/main.pdf</text></g></g><g id="ProcessOnG1105"><path id="ProcessOnPath1106" d="M904.0 510.0L938.375 510.0L938.375 510.0L957.5139320225002 510.0" stroke="#323232" stroke-width="2.0" stroke-dasharray="none" fill="none" marker-end="url(#ProcessOnMarker1107)"/></g><g id="ProcessOnG1109" transform="matrix(1.0,0.0,0.0,1.0,801.0,394.0)" opacity="1.0"><path id="ProcessOnPath1110" d="M0.0 0.0L96.5 0.0L112.5 16.0L112.5 20.0L0.0 20.0L0.0 0.0Z" stroke="none" stroke-width="0.0" stroke-dasharray="none" opacity="1.0" fill="#ffffaa"/><path id="ProcessOnPath1111" d="M96.5 0.0L96.5 16.0L112.5 16.0Z" stroke="none" stroke-width="0.0" stroke-dasharray="none" opacity="1.0" fill="#cdcd78"/><path id="ProcessOnPath1112" d="M0.0 0.0L96.5 0.0L112.5 16.0L112.5 20.0L0.0 20.0L0.0 0.0Z" stroke="none" stroke-width="0.0" stroke-dasharray="none" opacity="1.0" fill="none"/><g id="ProcessOnG1113" transform="matrix(1.0,0.0,0.0,1.0,10.0,1.875)"><text id="ProcessOnText1114" fill="#000000" font-size="13" x="45.25" y="13.325" font-family="微软雅黑" font-weight="normal" font-style="normal" text-decoration="none" family="微软雅黑" text-anchor="middle" size="13">pandoc</text></g></g><g id="ProcessOnG1115" transform="matrix(1.0,0.0,0.0,1.0,801.0,455.5)" opacity="1.0"><path id="ProcessOnPath1116" d="M0.0 0.0L96.5 0.0L112.5 16.0L112.5 20.0L0.0 20.0L0.0 0.0Z" stroke="none" stroke-width="0.0" stroke-dasharray="none" opacity="1.0" fill="#ffffaa"/><path id="ProcessOnPath1117" d="M96.5 0.0L96.5 16.0L112.5 16.0Z" stroke="none" stroke-width="0.0" stroke-dasharray="none" opacity="1.0" fill="#cdcd78"/><path id="ProcessOnPath1118" d="M0.0 0.0L96.5 0.0L112.5 16.0L112.5 20.0L0.0 20.0L0.0 0.0Z" stroke="none" stroke-width="0.0" stroke-dasharray="none" opacity="1.0" fill="none"/><g id="ProcessOnG1119" transform="matrix(1.0,0.0,0.0,1.0,10.0,1.875)"><text id="ProcessOnText1120" fill="#000000" font-size="13" x="45.25" y="13.325" font-family="微软雅黑" font-weight="normal" font-style="normal" text-decoration="none" family="微软雅黑" text-anchor="middle" size="13">pandoc</text></g></g><g id="ProcessOnG1121" transform="matrix(1.0,0.0,0.0,1.0,421.25,332.5)" opacity="1.0"><path id="ProcessOnPath1122" d="M0.0 0.0L96.5 0.0L112.5 16.0L112.5 20.0L0.0 20.0L0.0 0.0Z" stroke="none" stroke-width="0.0" stroke-dasharray="none" opacity="1.0" fill="#ffffaa"/><path id="ProcessOnPath1123" d="M96.5 0.0L96.5 16.0L112.5 16.0Z" stroke="none" stroke-width="0.0" stroke-dasharray="none" opacity="1.0" fill="#cdcd78"/><path id="ProcessOnPath1124" d="M0.0 0.0L96.5 0.0L112.5 16.0L112.5 20.0L0.0 20.0L0.0 0.0Z" stroke="none" stroke-width="0.0" stroke-dasharray="none" opacity="1.0" fill="none"/><g id="ProcessOnG1125" transform="matrix(1.0,0.0,0.0,1.0,10.0,1.875)"><text id="ProcessOnText1126" fill="#000000" font-size="13" x="45.25" y="13.325" font-family="微软雅黑" font-weight="normal" font-style="normal" text-decoration="none" family="微软雅黑" text-anchor="middle" size="13">pandoc</text></g></g><g id="ProcessOnG1127" transform="matrix(1.0,0.0,0.0,1.0,884.25,534.5)" opacity="1.0"><path id="ProcessOnPath1128" d="M0.0 0.0L96.5 0.0L112.5 16.0L112.5 20.0L0.0 20.0L0.0 0.0Z" stroke="none" stroke-width="0.0" stroke-dasharray="none" opacity="1.0" fill="#ffffaa"/><path id="ProcessOnPath1129" d="M96.5 0.0L96.5 16.0L112.5 16.0Z" stroke="none" stroke-width="0.0" stroke-dasharray="none" opacity="1.0" fill="#cdcd78"/><path id="ProcessOnPath1130" d="M0.0 0.0L96.5 0.0L112.5 16.0L112.5 20.0L0.0 20.0L0.0 0.0Z" stroke="none" stroke-width="0.0" stroke-dasharray="none" opacity="1.0" fill="none"/><g id="ProcessOnG1131" transform="matrix(1.0,0.0,0.0,1.0,10.0,1.875)"><text id="ProcessOnText1132" fill="#000000" font-size="13" x="45.25" y="13.325" font-family="微软雅黑" font-weight="normal" font-style="normal" text-decoration="none" family="微软雅黑" text-anchor="middle" size="13">xelatex</text></g></g><g id="ProcessOnG1133" transform="matrix(1.0,0.0,0.0,1.0,884.25,324.5)" opacity="1.0"><path id="ProcessOnPath1134" d="M0.0 0.0L96.5 0.0L112.5 16.0L112.5 20.0L0.0 20.0L0.0 0.0Z" stroke="none" stroke-width="0.0" stroke-dasharray="none" opacity="1.0" fill="#ffffaa"/><path id="ProcessOnPath1135" d="M96.5 0.0L96.5 16.0L112.5 16.0Z" stroke="none" stroke-width="0.0" stroke-dasharray="none" opacity="1.0" fill="#cdcd78"/><path id="ProcessOnPath1136" d="M0.0 0.0L96.5 0.0L112.5 16.0L112.5 20.0L0.0 20.0L0.0 0.0Z" stroke="none" stroke-width="0.0" stroke-dasharray="none" opacity="1.0" fill="none"/><g id="ProcessOnG1137" transform="matrix(1.0,0.0,0.0,1.0,10.0,1.875)"><text id="ProcessOnText1138" fill="#000000" font-size="13" x="45.25" y="13.325" font-family="微软雅黑" font-weight="normal" font-style="normal" text-decoration="none" family="微软雅黑" text-anchor="middle" size="13">xelatex</text></g></g></g></g></svg>